<svg width="180" height="180" viewBox="0 0 180 180" fill="none" xmlns="http://www.w3.org/2000/svg">
<path d="M115.208 74.3028L122.487 81.6101L129.766 88.9175L97.6787 121.113C94.1673 124.644 91.4182 127.399 89.17 129.555C85.7587 132.846 83.5272 134.756 81.6129 135.896C76.8855 138.701 71.4948 140.18 66.0034 140.18C60.5121 140.18 55.1214 138.701 50.3939 135.896C47.2164 134.002 42.3916 130.795 33.5379 121.929C24.6842 113.063 21.49 108.197 19.6257 105.002C16.8265 100.259 15.3494 94.8487 15.3494 89.3365C15.3494 83.8243 16.8265 78.4135 19.6257 73.6715C21.5122 70.4759 25.4967 66.4088 34.3504 57.5372L62.453 29.2909H42.7812L24.4839 47.6376C14.5283 57.6545 10.3769 61.9003 7.62785 66.5485C3.55522 73.4466 1.40625 81.3177 1.40625 89.3365C1.40625 97.3553 3.55522 105.226 7.62785 112.125C10.3769 116.778 13.7492 121.812 23.6937 131.806C33.6381 141.801 38.691 145.17 43.2932 147.935C50.0656 151.963 57.7808 154.116 65.6523 154.175C73.5238 154.234 81.27 152.196 88.1015 148.27C88.3019 148.159 88.5022 148.052 88.697 147.935C91.7299 146.131 94.5902 143.717 99.0032 139.46C101.324 137.225 104.073 134.432 107.512 131.013L132.32 106.108C137.178 101.225 138.581 99.8227 139.749 96.8841C141.803 91.7114 141.869 85.957 139.933 80.7386C138.82 77.7665 137.468 76.3307 132.698 71.3418C127.729 66.5764 126.299 65.1965 123.344 64.0792C118.148 62.1366 112.419 62.2003 107.267 64.2579C104.329 65.4367 102.932 66.839 98.0683 71.7217L64.8459 105.113L57.5615 97.8059L50.2771 90.4985L82.3475 58.3025C85.8645 54.7773 88.608 52.0175 90.8617 49.8611C94.2674 46.5761 96.5045 44.6655 98.4133 43.5258C103.14 40.7169 108.532 39.235 114.026 39.235C119.519 39.235 124.911 40.7169 129.638 43.5258C132.81 45.4029 137.245 49.0231 146.093 57.9115C154.941 66.7999 158.536 71.2468 160.423 74.4536C163.225 79.1976 164.704 84.6115 164.704 90.127C164.704 95.6425 163.225 101.056 160.423 105.8C158.536 108.985 154.557 113.063 145.704 121.929L117.545 150.198H137.217L155.514 131.829C165.47 121.834 169.621 117.588 172.37 112.94C176.444 106.041 178.594 98.1693 178.594 90.1494C178.594 82.1295 176.444 74.2573 172.37 67.3585C169.621 62.7104 165.876 58.0791 155.91 48.0789C145.943 38.0788 141.335 34.3134 136.705 31.5535C129.933 27.5257 122.218 25.3726 114.346 25.3137C106.475 25.2549 98.7283 27.2923 91.8968 31.2183L91.3014 31.5535C88.2685 33.3357 85.436 35.7491 80.9841 40.0062C78.658 42.2408 75.9145 45.0007 72.4754 48.4532L47.7284 73.3363C42.8647 78.1911 41.4734 79.5933 40.2937 82.5375C38.2398 87.7102 38.1744 93.4646 40.11 98.683C41.223 101.65 42.5809 103.085 47.3444 108.08C52.3194 112.845 53.7496 114.225 56.7101 115.342C61.9062 117.286 67.6365 117.22 72.787 115.158C75.7197 113.979 77.1165 112.577 81.9746 107.694L115.208 74.3028Z" fill="#FF9900"/>
</svg>
